REM MD5 f859c7d19ec864e58aac9b7b6daa43a1
FILE "Tournament Leader (Japan).bin" BINARY
  TRACK 01 MODE2/2352
    INDEX 01 00:00:00
  TRACK 02 AUDIO
    INDEX 00 04:10:14
    INDEX 01 04:12:14
  TRACK 03 AUDIO
    INDEX 00 06:43:62
    INDEX 01 06:45:62
  TRACK 04 AUDIO
    INDEX 00 09:09:33
    INDEX 01 09:11:33
  TRACK 05 AUDIO
    INDEX 00 11:32:50
    INDEX 01 11:34:50
  TRACK 06 AUDIO
    INDEX 00 12:10:47
    INDEX 01 12:12:47
  TRACK 07 AUDIO
    INDEX 00 12:18:25
    INDEX 01 12:20:25
  TRACK 08 AUDIO
    INDEX 00 12:33:56
    INDEX 01 12:35:56
  TRACK 09 AUDIO
    INDEX 00 12:53:10
    INDEX 01 12:55:10
  TRACK 10 AUDIO
    INDEX 00 13:07:65
    INDEX 01 13:09:65
  TRACK 11 AUDIO
    INDEX 00 13:22:44
    INDEX 01 13:24:44
  TRACK 12 AUDIO
    INDEX 00 13:37:49
    INDEX 01 13:39:49
  TRACK 13 AUDIO
    INDEX 00 13:49:31
    INDEX 01 13:51:31
  TRACK 14 AUDIO
    INDEX 00 14:03:54
    INDEX 01 14:05:54
  TRACK 15 AUDIO
    INDEX 00 14:20:28
    INDEX 01 14:22:28
  TRACK 16 AUDIO
    INDEX 00 14:37:10
    INDEX 01 14:39:10
  TRACK 17 AUDIO
    INDEX 00 14:53:57
    INDEX 01 14:55:57
  TRACK 18 AUDIO
    INDEX 00 15:11:60
    INDEX 01 15:13:60
  TRACK 19 AUDIO
    INDEX 00 15:28:62
    INDEX 01 15:30:62
  TRACK 20 AUDIO
    INDEX 00 15:43:66
    INDEX 01 15:45:66
  TRACK 21 AUDIO
    INDEX 00 16:00:60
    INDEX 01 16:02:60
  TRACK 22 AUDIO
    INDEX 00 16:16:68
    INDEX 01 16:18:68
  TRACK 23 AUDIO
    INDEX 00 16:33:14
    INDEX 01 16:35:14
  TRACK 24 AUDIO
    INDEX 00 16:49:13
    INDEX 01 16:51:13
  TRACK 25 AUDIO
    INDEX 00 17:04:60
    INDEX 01 17:06:60
  TRACK 26 AUDIO
    INDEX 00 17:12:48
    INDEX 01 17:14:48
  TRACK 27 AUDIO
    INDEX 00 17:30:66
    INDEX 01 17:32:66
  TRACK 28 AUDIO
    INDEX 00 17:45:73
    INDEX 01 17:47:73
  TRACK 29 AUDIO
    INDEX 00 18:02:24
    INDEX 01 18:04:24
  TRACK 30 AUDIO
    INDEX 00 18:19:46
    INDEX 01 18:21:46
  TRACK 31 AUDIO
    INDEX 00 18:33:09
    INDEX 01 18:35:09
  TRACK 32 AUDIO
    INDEX 00 18:50:02
    INDEX 01 18:52:02
  TRACK 33 AUDIO
    INDEX 00 19:08:13
    INDEX 01 19:10:13
  TRACK 34 AUDIO
    INDEX 00 19:26:67
    INDEX 01 19:28:67
  TRACK 35 AUDIO
    INDEX 00 19:45:49
    INDEX 01 19:47:49
  TRACK 36 AUDIO
    INDEX 00 20:07:07
    INDEX 01 20:09:07
  TRACK 37 AUDIO
    INDEX 00 20:26:63
    INDEX 01 20:28:63
  TRACK 38 AUDIO
    INDEX 00 20:44:52
    INDEX 01 20:46:52
  TRACK 39 AUDIO
    INDEX 00 21:02:27
    INDEX 01 21:04:27
  TRACK 40 AUDIO
    INDEX 00 21:21:13
    INDEX 01 21:23:13
  TRACK 41 AUDIO
    INDEX 00 21:40:41
    INDEX 01 21:42:41
  TRACK 42 AUDIO
    INDEX 00 21:56:64
    INDEX 01 21:58:64
  TRACK 43 AUDIO
    INDEX 00 22:12:65
    INDEX 01 22:14:65
  TRACK 44 AUDIO
    INDEX 00 22:33:56
    INDEX 01 22:35:56
  TRACK 45 AUDIO
    INDEX 00 23:17:13
    INDEX 01 23:19:13
  TRACK 46 AUDIO
    INDEX 00 23:23:62
    INDEX 01 23:25:62
  TRACK 47 AUDIO
    INDEX 00 23:39:53
    INDEX 01 23:41:53
  TRACK 48 AUDIO
    INDEX 00 23:51:16
    INDEX 01 23:53:16
  TRACK 49 AUDIO
    INDEX 00 24:06:14
    INDEX 01 24:08:14
  TRACK 50 AUDIO
    INDEX 00 24:18:10
    INDEX 01 24:20:10
  TRACK 51 AUDIO
    INDEX 00 24:33:07
    INDEX 01 24:35:07
  TRACK 52 AUDIO
    INDEX 00 24:47:61
    INDEX 01 24:49:61
  TRACK 53 AUDIO
    INDEX 00 25:02:60
    INDEX 01 25:04:60
  TRACK 54 AUDIO
    INDEX 00 25:16:58
    INDEX 01 25:18:58
  TRACK 55 AUDIO
    INDEX 00 25:29:51
    INDEX 01 25:31:51
  TRACK 56 AUDIO
    INDEX 00 25:43:22
    INDEX 01 25:45:22
  TRACK 57 AUDIO
    INDEX 00 25:56:12
    INDEX 01 25:58:12
  TRACK 58 AUDIO
    INDEX 00 26:17:12
    INDEX 01 26:19:12
  TRACK 59 AUDIO
    INDEX 00 26:28:53
    INDEX 01 26:30:53
  TRACK 60 AUDIO
    INDEX 00 26:40:51
    INDEX 01 26:42:51
  TRACK 61 AUDIO
    INDEX 00 26:54:59
    INDEX 01 26:56:59
  TRACK 62 AUDIO
    INDEX 00 27:11:07
    INDEX 01 27:13:07
  TRACK 63 AUDIO
    INDEX 00 27:23:20
    INDEX 01 27:25:20
  TRACK 64 AUDIO
    INDEX 00 27:36:66
    INDEX 01 27:38:66
  TRACK 65 AUDIO
    INDEX 00 27:44:08
    INDEX 01 27:46:08
  TRACK 66 AUDIO
    INDEX 00 27:59:02
    INDEX 01 28:01:02
  TRACK 67 AUDIO
    INDEX 00 28:13:47
    INDEX 01 28:15:47
  TRACK 68 AUDIO
    INDEX 00 28:28:73
    INDEX 01 28:30:73
  TRACK 69 AUDIO
    INDEX 00 28:44:05
    INDEX 01 28:46:05
  TRACK 70 AUDIO
    INDEX 00 28:56:56
    INDEX 01 28:58:56
  TRACK 71 AUDIO
    INDEX 00 29:14:43
    INDEX 01 29:16:43
  TRACK 72 AUDIO
    INDEX 00 29:33:01
    INDEX 01 29:35:01
  TRACK 73 AUDIO
    INDEX 00 29:47:03
    INDEX 01 29:49:03
  TRACK 74 AUDIO
    INDEX 00 30:02:20
    INDEX 01 30:04:20
  TRACK 75 AUDIO
    INDEX 00 30:18:51
    INDEX 01 30:20:51
  TRACK 76 AUDIO
    INDEX 00 30:32:72
    INDEX 01 30:34:72
  TRACK 77 AUDIO
    INDEX 00 30:47:49
    INDEX 01 30:49:49
  TRACK 78 AUDIO
    INDEX 00 31:01:68
    INDEX 01 31:03:68
  TRACK 79 AUDIO
    INDEX 00 31:16:24
    INDEX 01 31:18:24
  TRACK 80 AUDIO
    INDEX 00 31:30:56
    INDEX 01 31:32:56
  TRACK 81 AUDIO
    INDEX 00 31:50:62
    INDEX 01 31:52:62
  TRACK 82 AUDIO
    INDEX 00 32:04:14
    INDEX 01 32:06:14
  TRACK 83 AUDIO
    INDEX 00 32:20:04
    INDEX 01 32:22:04
  TRACK 84 AUDIO
    INDEX 00 32:58:66
    INDEX 01 33:00:66
  TRACK 85 AUDIO
    INDEX 00 34:33:56
    INDEX 01 34:35:56
  TRACK 86 AUDIO
    INDEX 00 36:17:10
    INDEX 01 36:19:10
REM LEADOUT 39:19:71
